<mxfile host="drawio-plugin" modified="2023-02-02T03:25:43.216Z" agent="5.0 (Windows NT 6.2; Win64; x64) AppleWebKit/537.36 (KHTML, like Gecko) Chrome/89.0.4389.114 Safari/537.36" etag="l1pQzhHpDuPJwspmvm55" version="15.5.4" type="embed"><diagram id="23iRSUPoRavnBvh4doch" name="Page-1"><mxGraphModel dx="1423" dy="712" grid="1" gridSize="10" guides="1" tooltips="1" connect="1" arrows="1" fold="1" page="1" pageScale="1" pageWidth="827" pageHeight="1169" math="0" shadow="0"><root><mxCell id="0"/><mxCell id="1" parent="0"/><mxCell id="2" value="列表页" style="whiteSpace=wrap;html=1;aspect=fixed;" vertex="1" parent="1"><mxGeometry x="60" y="270" width="470" height="470" as="geometry"/></mxCell><mxCell id="3" value="详情页" style="rounded=0;whiteSpace=wrap;html=1;" vertex="1" parent="1"><mxGeometry x="790" y="330" width="370" height="350" as="geometry"/></mxCell><mxCell id="5" value="" style="endArrow=classic;html=1;rounded=0;exitX=1.004;exitY=0.193;exitDx=0;exitDy=0;exitPerimeter=0;entryX=-0.001;entryY=0.091;entryDx=0;entryDy=0;entryPerimeter=0;" edge="1" parent="1" source="2" target="3"><mxGeometry width="50" height="50" relative="1" as="geometry"><mxPoint x="620" y="500" as="sourcePoint"/><mxPoint x="670" y="450" as="targetPoint"/></mxGeometry></mxCell><mxCell id="6" value="列表跳转至详情页时,缓存列表页" style="text;html=1;strokeColor=none;fillColor=none;align=center;verticalAlign=middle;whiteSpace=wrap;rounded=0;" vertex="1" parent="1"><mxGeometry x="535" y="330" width="205" height="30" as="geometry"/></mxCell><mxCell id="7" value="" style="endArrow=classic;html=1;rounded=0;exitX=0.5;exitY=0;exitDx=0;exitDy=0;" edge="1" parent="1" source="2" target="8"><mxGeometry width="50" height="50" relative="1" as="geometry"><mxPoint x="590" y="560" as="sourcePoint"/><mxPoint x="640" y="510" as="targetPoint"/></mxGeometry></mxCell><mxCell id="8" value="" style="rounded=0;whiteSpace=wrap;html=1;" vertex="1" parent="1"><mxGeometry x="340" y="60" width="120" height="60" as="geometry"/></mxCell><mxCell id="9" value="" style="rounded=0;whiteSpace=wrap;html=1;" vertex="1" parent="1"><mxGeometry x="570" y="60" width="120" height="60" as="geometry"/></mxCell><mxCell id="10" value="" style="endArrow=classic;html=1;rounded=0;exitX=0.5;exitY=0;exitDx=0;exitDy=0;entryX=0.5;entryY=1;entryDx=0;entryDy=0;" edge="1" parent="1" source="2" target="9"><mxGeometry width="50" height="50" relative="1" as="geometry"><mxPoint x="590" y="360" as="sourcePoint"/><mxPoint x="640" y="310" as="targetPoint"/></mxGeometry></mxCell><mxCell id="11" value="列表页跳转至其他页面时均不缓存列表页" style="text;html=1;strokeColor=none;fillColor=none;align=center;verticalAlign=middle;whiteSpace=wrap;rounded=0;" vertex="1" parent="1"><mxGeometry x="299.5" y="170" width="230.5" height="30" as="geometry"/></mxCell><mxCell id="12" value="" style="endArrow=classic;html=1;rounded=0;entryX=1;entryY=0.619;entryDx=0;entryDy=0;entryPerimeter=0;exitX=-0.005;exitY=0.666;exitDx=0;exitDy=0;exitPerimeter=0;" edge="1" parent="1" source="3" target="2"><mxGeometry width="50" height="50" relative="1" as="geometry"><mxPoint x="590" y="560" as="sourcePoint"/><mxPoint x="640" y="510" as="targetPoint"/></mxGeometry></mxCell><mxCell id="13" value="详情页返回至列表页时还原缓存列表页" style="text;html=1;strokeColor=none;fillColor=none;align=center;verticalAlign=middle;whiteSpace=wrap;rounded=0;" vertex="1" parent="1"><mxGeometry x="530" y="530" width="210" height="30" as="geometry"/></mxCell><mxCell id="15" value="" style="rounded=0;whiteSpace=wrap;html=1;" vertex="1" parent="1"><mxGeometry x="827" y="60" width="120" height="60" as="geometry"/></mxCell><mxCell id="16" value="" style="rounded=0;whiteSpace=wrap;html=1;" vertex="1" parent="1"><mxGeometry x="1090" y="60" width="120" height="60" as="geometry"/></mxCell><mxCell id="17" value="" style="endArrow=classic;html=1;rounded=0;entryX=0.392;entryY=1.067;entryDx=0;entryDy=0;entryPerimeter=0;exitX=0.5;exitY=0;exitDx=0;exitDy=0;" edge="1" parent="1" source="3" target="15"><mxGeometry width="50" height="50" relative="1" as="geometry"><mxPoint x="590" y="360" as="sourcePoint"/><mxPoint x="640" y="310" as="targetPoint"/></mxGeometry></mxCell><mxCell id="18" value="" style="endArrow=classic;html=1;rounded=0;entryX=0.6;entryY=1;entryDx=0;entryDy=0;entryPerimeter=0;exitX=0.5;exitY=0;exitDx=0;exitDy=0;" edge="1" parent="1" source="3" target="16"><mxGeometry width="50" height="50" relative="1" as="geometry"><mxPoint x="590" y="360" as="sourcePoint"/><mxPoint x="640" y="310" as="targetPoint"/></mxGeometry></mxCell><mxCell id="19" value="详情页跳转至其他页面时,清除列表缓存(前提是跳转后详情页被销毁)" style="text;html=1;strokeColor=none;fillColor=none;align=center;verticalAlign=middle;whiteSpace=wrap;rounded=0;" vertex="1" parent="1"><mxGeometry x="800" y="270" width="380" height="30" as="geometry"/></mxCell></root></mxGraphModel></diagram></mxfile>